<svg xmlns="http://www.w3.org/2000/svg" xmlns:xlink="http://www.w3.org/1999/xlink" width="2000" zoomAndPan="magnify" viewBox="0 0 1500 1499.999933" height="2000" preserveAspectRatio="xMidYMid meet" version="1.0"><defs><clipPath id="71d803f130"><path d="M 367 454.386719 L 687 454.386719 L 687 923 L 367 923 Z M 367 454.386719 " clip-rule="nonzero"/></clipPath></defs><path fill="#ffffff" d="M 206.910156 713.027344 C 149.417969 700.558594 123.804688 695.675781 123.804688 673.523438 C 123.804688 652.6875 141.140625 642.304688 175.804688 642.304688 C 206.289062 642.304688 228.574219 655.628906 244.976562 681.734375 C 246.214844 683.746094 248.769531 684.445312 250.859375 683.359375 L 315.542969 650.671875 C 317.867188 649.511719 318.71875 646.566406 317.402344 644.320312 C 290.550781 597.765625 240.953125 572.28125 175.648438 572.28125 C 89.839844 572.28125 36.527344 614.574219 36.527344 681.8125 C 36.527344 753.230469 101.445312 771.277344 159.011719 783.75 C 216.582031 796.21875 242.269531 801.101562 242.269531 823.253906 C 242.269531 845.410156 223.542969 855.863281 186.171875 855.863281 C 151.660156 855.863281 126.050781 840.0625 110.574219 809.386719 C 109.414062 807.140625 106.707031 806.214844 104.460938 807.375 L 39.929688 839.367188 C 37.6875 840.527344 36.757812 843.238281 37.917969 845.5625 C 63.53125 897.074219 116.070312 926.042969 186.25 926.042969 C 275.617188 926.042969 329.625 884.449219 329.625 815.121094 C 329.625 745.792969 264.398438 725.652344 206.910156 713.183594 Z M 206.910156 713.027344 " fill-opacity="1" fill-rule="nonzero"/><g clip-path="url(#71d803f130)"><path fill="#ffffff" d="M 553.554688 572.28125 C 516.875 572.28125 484.457031 585.296875 461.167969 608.457031 C 459.699219 609.851562 457.296875 608.84375 457.296875 606.832031 L 457.296875 458.957031 C 457.296875 456.402344 455.285156 454.386719 452.734375 454.386719 L 371.796875 454.386719 C 369.242188 454.386719 367.234375 456.402344 367.234375 458.957031 L 367.234375 917.914062 C 367.234375 920.46875 369.242188 922.480469 371.796875 922.480469 L 452.734375 922.480469 C 455.285156 922.480469 457.296875 920.46875 457.296875 917.914062 L 457.296875 716.59375 C 457.296875 677.707031 487.089844 647.882812 527.246094 647.882812 C 567.40625 647.882812 596.496094 677.085938 596.496094 716.59375 L 596.496094 917.914062 C 596.496094 920.46875 598.507812 922.480469 601.0625 922.480469 L 681.996094 922.480469 C 684.554688 922.480469 686.566406 920.46875 686.566406 917.914062 L 686.566406 716.59375 C 686.566406 632.003906 631.164062 572.359375 553.554688 572.359375 Z M 553.554688 572.28125 " fill-opacity="1" fill-rule="nonzero"/></g><path fill="#ffffff" d="M 850.75 559.113281 C 806.804688 559.113281 765.636719 572.59375 736.078125 592.035156 C 734.066406 593.351562 733.371094 596.0625 734.609375 598.15625 L 770.28125 659.117188 C 771.597656 661.285156 774.378906 662.058594 776.546875 660.742188 C 798.988281 647.1875 824.675781 640.140625 850.90625 640.292969 C 921.550781 640.292969 973.46875 690.179688 973.46875 756.097656 C 973.46875 812.257812 931.917969 853.851562 879.222656 853.851562 C 836.28125 853.851562 806.492188 828.832031 806.492188 793.511719 C 806.492188 773.292969 815.078125 756.71875 837.441406 745.019531 C 839.761719 743.78125 840.613281 740.914062 839.222656 738.667969 L 805.5625 681.65625 C 804.480469 679.796875 802.160156 678.945312 800.070312 679.722656 C 754.960938 696.453125 723.3125 736.730469 723.3125 790.800781 C 723.3125 872.597656 788.386719 933.636719 879.148438 933.636719 C 985.152344 933.636719 1061.367188 860.128906 1061.367188 754.703125 C 1061.367188 641.6875 972.695312 559.113281 850.75 559.113281 Z M 850.75 559.113281 " fill-opacity="1" fill-rule="nonzero"/><path fill="#ffffff" d="M 1298.054688 571.664062 C 1257.121094 571.664062 1220.601562 586.769531 1193.90625 613.414062 C 1192.433594 614.886719 1190.039062 613.800781 1190.039062 611.789062 L 1190.039062 579.71875 C 1190.039062 577.164062 1188.027344 575.148438 1185.46875 575.148438 L 1106.625 575.148438 C 1104.074219 575.148438 1102.0625 577.164062 1102.0625 579.71875 L 1102.0625 1037.976562 C 1102.0625 1040.53125 1104.074219 1042.546875 1106.625 1042.546875 L 1187.5625 1042.546875 C 1190.113281 1042.546875 1192.125 1040.53125 1192.125 1037.976562 L 1192.125 887.703125 C 1192.125 885.6875 1194.527344 884.683594 1195.992188 886 C 1222.613281 910.785156 1257.820312 925.269531 1298.128906 925.269531 C 1393.070312 925.269531 1467.121094 848.351562 1467.121094 748.429688 C 1467.121094 648.503906 1392.992188 571.585938 1298.128906 571.585938 Z M 1282.808594 847.65625 C 1228.800781 847.65625 1187.871094 804.664062 1187.871094 747.808594 C 1187.871094 690.953125 1228.722656 647.960938 1282.808594 647.960938 C 1336.894531 647.960938 1377.675781 690.253906 1377.675781 747.808594 C 1377.675781 805.359375 1337.441406 847.65625 1282.734375 847.65625 Z M 1282.808594 847.65625 " fill-opacity="1" fill-rule="nonzero"/></svg>